<svg width="116" height="24" viewBox="0 0 116 24" xmlns="http://www.w3.org/2000/svg"><title>icon_index_logo</title><g stroke-linecap="round" stroke-linejoin="round" fill="none" fill-rule="evenodd"><g stroke="#FF3955" stroke-width="2"><path d="M1 2.998C1 1.894 1.887 1 3.006 1h3.492c.83 0 1.899.545 2.389 1.22l6.226 8.56c.49.674.53 1.78.084 2.482l-5.394 8.476C9.36 22.435 8.332 23 7.495 23H2.998A2 2 0 0 1 1 21.002V18.5c0-.828.42-2.025.938-2.671l2.437-3.047c.345-.431.35-1.125 0-1.562L1.938 8.172C1.42 7.525 1 6.335 1 5.502V2.997z"/><path d="M23 2.998A1.995 1.995 0 0 0 20.994 1h-3.492c-.83 0-1.899.545-2.389 1.22l-6.226 8.56c-.49.674-.53 1.78-.084 2.482l5.394 8.476c.443.697 1.471 1.262 2.308 1.262h4.497A2 2 0 0 0 23 21.002V18.5c0-.828-.42-2.025-.938-2.671l-2.437-3.047c-.345-.431-.35-1.125 0-1.562l2.437-3.047c.518-.647.938-1.837.938-2.67V2.997z"/></g><path d="M38 5v12.004c0 .826-.666 1.385-1.482 1.249L35 18m-1-9l-3 7m11-7l3 7m8.003-8.5a.494.494 0 0 0-.503.49v3.02c0 .27.233.49.503.49h5.994a.494.494 0 0 0 .503-.49V7.99c0-.27-.233-.49-.503-.49h-5.994zm.497-3L55 7m4-2.5L57.5 7M48 5.5l2 2m-3 2h2.5V18c1 0 2-3 2-3m3-3s0 3.5-1 5-2 1.5-2 1.5m6-6.5v6c0 .276.229.5.501.5H59c1 0 1.5-.5 1.5-1.5v-2" stroke="#1A1A1A" stroke-width="1.2"/><g stroke="#1A1A1A" stroke-width="1.2"><path d="M65.5 4.5l1.5 2m-2.5.5v11.5m5-13h7.003c.55 0 .997.447.997.999V17.5a.996.996 0 0 1-.999.999H74.5M69 7l.5 1.5M73 7l-.5 1.5"/><path d="M74.5 9c.276 0 .5.216.5.495v2.01c0 .273-.23.495-.5.495h-7a.494.494 0 0 1-.5-.495v-2.01c0-.273.23-.495.5-.495h7zm-5 3.5s0 1.5-1 2.5-2 1.5-2 1.5m6-4v3.51c0 .27.23.49.506.49h.992c.553 0 1.113-.444 1.246-.977L75.5 14.5"/></g><g stroke="#1A1A1A" stroke-width="1.2"><path d="M82 5l2 2m-3 2.5h2.5V18c1 0 2-2.5 2-2.5m5-11v4m-4-2h8-8zm-1 2h9.49c.282 0 .467.213.414.482L95 11"/><path d="M91.5 10v4c0 2.5-5.5 4.5-5.5 4.5m-.5-5h10m-7-3.5l2 1.5m-4 0l1.5 1m3.5 2.5s1 .5 2 1.5 1.5 2 1.5 2"/></g><g stroke="#1A1A1A" stroke-width="1.2"><path d="M98.5 18.5V6.499c0-.552.447-.999.999-.999H110.5c.552 0 .999.447.999.999V17.5a.996.996 0 0 1-.999.999h-2"/><path d="M100.5 8s1 1.5 2 3.5S104 15 104 15"/><path d="M104 7s-.5 2.5-1.5 5-2.5 4-2.5 4m6-8s1 1.5 2 3.5 1.5 3.5 1.5 3.5"/><path d="M109.5 7s-.5 2.5-1.5 5-2.5 4.5-2.5 4.5"/></g></g></svg>